<svg width="149" height="19" viewBox="0 0 149 19" fill="none" xmlns="http://www.w3.org/2000/svg">
<path d="M-0.0079999 18V1.2H8.2C10.312 1.2 11.896 1.6 12.952 2.4C14.024 3.2 14.56 4.256 14.56 5.568C14.56 6.448 14.344 7.216 13.912 7.872C13.48 8.512 12.888 9.008 12.136 9.36C11.384 9.712 10.52 9.888 9.544 9.888L10 8.904C11.056 8.904 11.992 9.08 12.808 9.432C13.624 9.768 14.256 10.272 14.704 10.944C15.168 11.616 15.4 12.44 15.4 13.416C15.4 14.856 14.832 15.984 13.696 16.8C12.56 17.6 10.888 18 8.68 18H-0.0079999ZM3.856 15.072H8.392C9.4 15.072 10.16 14.912 10.672 14.592C11.2 14.256 11.464 13.728 11.464 13.008C11.464 12.304 11.2 11.784 10.672 11.448C10.16 11.096 9.4 10.92 8.392 10.92H3.568V8.088H7.72C8.664 8.088 9.384 7.928 9.88 7.608C10.392 7.272 10.648 6.768 10.648 6.096C10.648 5.44 10.392 4.952 9.88 4.632C9.384 4.296 8.664 4.128 7.72 4.128H3.856V15.072ZM18.1796 18V5.088H21.7556V8.736L21.2516 7.68C21.6356 6.768 22.2516 6.08 23.0996 5.616C23.9476 5.136 24.9796 4.896 26.1956 4.896V8.352C26.0356 8.336 25.8916 8.328 25.7636 8.328C25.6356 8.312 25.4996 8.304 25.3556 8.304C24.3316 8.304 23.4996 8.6 22.8596 9.192C22.2356 9.768 21.9236 10.672 21.9236 11.904V18H18.1796ZM35.598 18V15.48L35.358 14.928V10.416C35.358 9.616 35.11 8.992 34.614 8.544C34.134 8.096 33.39 7.872 32.382 7.872C31.694 7.872 31.014 7.984 30.342 8.208C29.686 8.416 29.126 8.704 28.662 9.072L27.318 6.456C28.022 5.96 28.87 5.576 29.862 5.304C30.854 5.032 31.862 4.896 32.886 4.896C34.854 4.896 36.382 5.36 37.47 6.288C38.558 7.216 39.102 8.664 39.102 10.632V18H35.598ZM31.662 18.192C30.654 18.192 29.79 18.024 29.07 17.688C28.35 17.336 27.798 16.864 27.414 16.272C27.03 15.68 26.838 15.016 26.838 14.28C26.838 13.512 27.022 12.84 27.39 12.264C27.774 11.688 28.374 11.24 29.19 10.92C30.006 10.584 31.07 10.416 32.382 10.416H35.814V12.6H32.79C31.91 12.6 31.302 12.744 30.966 13.032C30.646 13.32 30.486 13.68 30.486 14.112C30.486 14.592 30.67 14.976 31.038 15.264C31.422 15.536 31.942 15.672 32.598 15.672C33.222 15.672 33.782 15.528 34.278 15.24C34.774 14.936 35.134 14.496 35.358 13.92L35.934 15.648C35.662 16.48 35.166 17.112 34.446 17.544C33.726 17.976 32.798 18.192 31.662 18.192ZM50.4385 4.896C51.4625 4.896 52.3745 5.104 53.1745 5.52C53.9905 5.92 54.6305 6.544 55.0945 7.392C55.5585 8.224 55.7905 9.296 55.7905 10.608V18H52.0465V11.184C52.0465 10.144 51.8145 9.376 51.3505 8.88C50.9025 8.384 50.2625 8.136 49.4305 8.136C48.8385 8.136 48.3025 8.264 47.8225 8.52C47.3585 8.76 46.9905 9.136 46.7185 9.648C46.4625 10.16 46.3345 10.816 46.3345 11.616V18H42.5905V5.088H46.1665V8.664L45.4945 7.584C45.9585 6.72 46.6225 6.056 47.4865 5.592C48.3505 5.128 49.3345 4.896 50.4385 4.896ZM64.922 18.192C63.706 18.192 62.61 17.92 61.634 17.376C60.658 16.816 59.882 16.04 59.306 15.048C58.746 14.056 58.466 12.888 58.466 11.544C58.466 10.184 58.746 9.008 59.306 8.016C59.882 7.024 60.658 6.256 61.634 5.712C62.61 5.168 63.706 4.896 64.922 4.896C66.01 4.896 66.962 5.136 67.778 5.616C68.594 6.096 69.226 6.824 69.674 7.8C70.122 8.776 70.346 10.024 70.346 11.544C70.346 13.048 70.13 14.296 69.698 15.288C69.266 16.264 68.642 16.992 67.826 17.472C67.026 17.952 66.058 18.192 64.922 18.192ZM65.57 15.12C66.178 15.12 66.73 14.976 67.226 14.688C67.722 14.4 68.114 13.992 68.402 13.464C68.706 12.92 68.858 12.28 68.858 11.544C68.858 10.792 68.706 10.152 68.402 9.624C68.114 9.096 67.722 8.688 67.226 8.4C66.73 8.112 66.178 7.968 65.57 7.968C64.946 7.968 64.386 8.112 63.89 8.4C63.394 8.688 62.994 9.096 62.69 9.624C62.402 10.152 62.258 10.792 62.258 11.544C62.258 12.28 62.402 12.92 62.69 13.464C62.994 13.992 63.394 14.4 63.89 14.688C64.386 14.976 64.946 15.12 65.57 15.12ZM68.954 18V15.36L69.026 11.52L68.786 7.704V0.191999H72.53V18H68.954ZM76.3592 18V1.2H79.5752L89.4872 13.296H87.9272V1.2H91.7672V18H88.5752L78.6392 5.904H80.1992V18H76.3592ZM103.498 18V15.48L103.258 14.928V10.416C103.258 9.616 103.01 8.992 102.514 8.544C102.034 8.096 101.29 7.872 100.282 7.872C99.594 7.872 98.914 7.984 98.242 8.208C97.586 8.416 97.026 8.704 96.562 9.072L95.218 6.456C95.922 5.96 96.77 5.576 97.762 5.304C98.754 5.032 99.762 4.896 100.786 4.896C102.754 4.896 104.282 5.36 105.37 6.288C106.458 7.216 107.002 8.664 107.002 10.632V18H103.498ZM99.562 18.192C98.554 18.192 97.69 18.024 96.97 17.688C96.25 17.336 95.698 16.864 95.314 16.272C94.93 15.68 94.738 15.016 94.738 14.28C94.738 13.512 94.922 12.84 95.29 12.264C95.674 11.688 96.274 11.24 97.09 10.92C97.906 10.584 98.97 10.416 100.282 10.416H103.714V12.6H100.69C99.81 12.6 99.202 12.744 98.866 13.032C98.546 13.32 98.386 13.68 98.386 14.112C98.386 14.592 98.57 14.976 98.938 15.264C99.322 15.536 99.842 15.672 100.498 15.672C101.122 15.672 101.682 15.528 102.178 15.24C102.674 14.936 103.034 14.496 103.258 13.92L103.834 15.648C103.562 16.48 103.066 17.112 102.346 17.544C101.626 17.976 100.698 18.192 99.562 18.192ZM127.026 4.896C128.05 4.896 128.954 5.104 129.738 5.52C130.538 5.92 131.162 6.544 131.61 7.392C132.074 8.224 132.306 9.296 132.306 10.608V18H128.562V11.184C128.562 10.144 128.346 9.376 127.914 8.88C127.482 8.384 126.874 8.136 126.09 8.136C125.546 8.136 125.058 8.264 124.626 8.52C124.194 8.76 123.858 9.128 123.618 9.624C123.378 10.12 123.258 10.752 123.258 11.52V18H119.514V11.184C119.514 10.144 119.298 9.376 118.866 8.88C118.45 8.384 117.85 8.136 117.066 8.136C116.522 8.136 116.034 8.264 115.602 8.52C115.17 8.76 114.834 9.128 114.594 9.624C114.354 10.12 114.234 10.752 114.234 11.52V18H110.49V5.088H114.066V8.616L113.394 7.584C113.842 6.704 114.474 6.04 115.29 5.592C116.122 5.128 117.066 4.896 118.122 4.896C119.306 4.896 120.338 5.2 121.218 5.808C122.114 6.4 122.706 7.312 122.994 8.544L121.674 8.184C122.106 7.176 122.794 6.376 123.738 5.784C124.698 5.192 125.794 4.896 127.026 4.896ZM142.264 18.192C140.792 18.192 139.496 17.904 138.376 17.328C137.272 16.752 136.416 15.968 135.808 14.976C135.2 13.968 134.896 12.824 134.896 11.544C134.896 10.248 135.192 9.104 135.784 8.112C136.392 7.104 137.216 6.32 138.256 5.76C139.296 5.184 140.472 4.896 141.784 4.896C143.048 4.896 144.184 5.168 145.192 5.712C146.216 6.24 147.024 7.008 147.616 8.016C148.208 9.008 148.504 10.2 148.504 11.592C148.504 11.736 148.496 11.904 148.48 12.096C148.464 12.272 148.448 12.44 148.432 12.6H137.944V10.416H146.464L145.024 11.064C145.024 10.392 144.888 9.808 144.616 9.312C144.344 8.816 143.968 8.432 143.488 8.16C143.008 7.872 142.448 7.728 141.808 7.728C141.168 7.728 140.6 7.872 140.104 8.16C139.624 8.432 139.248 8.824 138.976 9.336C138.704 9.832 138.568 10.424 138.568 11.112V11.688C138.568 12.392 138.72 13.016 139.024 13.56C139.344 14.088 139.784 14.496 140.344 14.784C140.92 15.056 141.592 15.192 142.36 15.192C143.048 15.192 143.648 15.088 144.16 14.88C144.688 14.672 145.168 14.36 145.6 13.944L147.592 16.104C147 16.776 146.256 17.296 145.36 17.664C144.464 18.016 143.432 18.192 142.264 18.192Z" fill="white"/>
</svg>
